<svg xmlns="http://www.w3.org/2000/svg" width="30" height="30" fill="none" viewBox="0 0 30 30"><g clip-path="url(#a)"><path fill="#000" d="M15 0c8.284 0 15 6.716 15 15 0 8.284-6.716 15-15 15-8.284 0-15-6.716-15-15C0 6.716 6.716 0 15 0Zm9 9.839c0-2.756-2.412-1.89-3.901-.77-2.064 1.55-4.284 4.696-5.099 6.384-.815-1.688-3.035-4.833-5.099-6.385C8.412 7.95 6 7.083 6 9.838c0 .552.315 4.625.5 5.286.642 2.299 2.984 2.885 5.066 2.53C7.926 18.274 7 20.33 9 22.384c3.798 3.902 5.46-.979 5.885-2.23.079-.23.115-.338.115-.243 0-.095.037.012.115.243.425 1.251 2.087 6.132 5.885 2.23 2-2.055 1.074-4.11-2.566-4.73 2.082.355 4.424-.231 5.066-2.53.185-.661.5-4.734.5-5.285Z"/></g><defs><clipPath id="a"><path fill="#fff" d="M0 0h30v30H0z"/></clipPath></defs></svg>