<svg xmlns="http://www.w3.org/2000/svg" width="30" height="30" fill="none" viewBox="0 0 30 30"><g clip-path="url(#a)"><path fill="#000" d="M15 0c8.284 0 15 6.716 15 15 0 8.284-6.716 15-15 15-8.284 0-15-6.716-15-15C0 6.716 6.716 0 15 0Zm.132 6c-2.72.02-4.81.954-6.215 2.778-1.25 1.624-1.895 3.883-1.917 6.715v.014c.022 2.832.667 5.091 1.917 6.715 1.405 1.824 3.496 2.759 6.215 2.778h.012c2.417-.017 4.121-.664 5.525-2.097 1.837-1.874 1.781-4.225 1.176-5.668-.435-1.034-1.263-1.874-2.395-2.43a6.371 6.371 0 0 0-.244-.112c-.143-2.702-1.589-4.25-4.016-4.265h-.032c-1.451 0-2.66.633-3.402 1.785l1.335.935c.555-.86 1.426-1.043 2.067-1.043h.023c.799.005 1.401.242 1.792.705.284.337.474.803.568 1.39a9.998 9.998 0 0 0-2.294-.113c-2.307.136-3.79 1.51-3.69 3.42a2.96 2.96 0 0 0 1.33 2.348c.682.46 1.562.686 2.475.635 1.207-.067 2.153-.538 2.814-1.398.501-.653.819-1.5.959-2.567.575.355 1 .822 1.236 1.383.4.954.424 2.52-.827 3.797-1.096 1.12-2.415 1.603-4.406 1.618-2.21-.017-3.88-.74-4.967-2.151-1.017-1.321-1.543-3.23-1.563-5.672.02-2.442.546-4.35 1.563-5.672 1.086-1.41 2.757-2.134 4.967-2.151 2.225.017 3.926.744 5.053 2.162.553.695.97 1.57 1.245 2.589L23 12c-.333-1.255-.858-2.336-1.571-3.232-1.446-1.818-3.56-2.75-6.285-2.769h-.012Zm.766 9.744c.604 0 1.17.06 1.683.175-.191 2.444-1.315 2.84-2.305 2.896-1.01.059-2.062-.405-2.114-1.398-.038-.736.513-1.558 2.176-1.656.19-.011.377-.017.56-.017Z"/></g><defs><clipPath id="a"><path fill="#fff" d="M0 0h30v30H0z"/></clipPath></defs></svg>