<svg xmlns="http://www.w3.org/2000/svg" width="256" height="192" fill="none" viewBox="0 0 256 192"><path fill="#000" fill-rule="evenodd" d="M85.657 30.08 81.693 49.6H60.15l-16.363 82.84H21.851L38.213 49.6H15.747l3.965-19.52h65.945Zm55.755 31.351-42.818 79.936a88.517 88.517 0 0 1-2.511 4.117 25.01 25.01 0 0 1-3.304 4.116c-2.555 2.567-5.264 4.404-8.127 5.51-2.864 1.107-6.146 1.66-9.846 1.66h-7.665l3.832-18.855h4.23c1.938 0 3.48-.553 4.625-1.66 1.145-1.106 2.246-2.678 3.303-4.714l3.04-5.709-9.912-64.4h20.352l3.965 39.834 19.163-39.835h21.673Zm62.975 17.231c0 .797-.022 1.66-.066 2.59-.044.93-.132 2.058-.264 3.386-.133 1.328-.375 2.965-.727 4.913-.434 2.391-.875 4.781-1.322 7.17-1.586 7.967-3.172 14.296-4.757 18.988-1.586 4.692-3.613 8.277-6.08 10.756-2.731 2.744-5.572 4.558-8.524 5.444a31.324 31.324 0 0 1-9.052 1.327c-3.172 0-6.057-.553-8.656-1.659-2.599-1.107-4.78-2.723-6.542-4.847l-5.683 28.814h-20.616l18.766-94.542h19.823l-1.189 5.976c1.938-2.125 4.295-3.785 7.07-4.98 2.775-1.195 5.837-1.793 9.185-1.793 3.7 0 6.762.642 9.185 1.926 2.423 1.283 4.317 2.855 5.683 4.714 1.365 1.859 2.334 3.85 2.907 5.975.572 2.125.859 4.072.859 5.843Zm-21.542 7.304c0-.531-.044-1.195-.132-1.992a6.487 6.487 0 0 0-.726-2.324c-.397-.752-1.014-1.394-1.851-1.925-.837-.531-2.004-.797-3.502-.797-1.938 0-3.546.354-4.823 1.062-1.278.709-2.379 1.793-3.304 3.254-.926 1.46-1.696 3.32-2.313 5.576-.617 2.258-1.234 4.891-1.85 7.901a96.482 96.482 0 0 0-.991 5.643c-.309 2.081-.463 3.785-.463 5.112 0 .532.044 1.195.132 1.992.088.797.331 1.571.727 2.324.397.752 1.013 1.394 1.85 1.925.837.532 2.005.797 3.502.797 1.939 0 3.547-.354 4.824-1.062 1.278-.708 2.379-1.793 3.304-3.254.925-1.46 1.696-3.319 2.312-5.576.618-2.257 1.234-4.891 1.851-7.901.352-1.682.683-3.563.991-5.643.308-2.08.462-3.785.462-5.112Zm64.757-48.068-3.172 16.067h-20.616l3.172-16.067h20.616Zm-5.154 25.893-13.612 68.649h-20.617l13.613-68.65h20.616Zm-46.335 94.851-1.937 1.622c-.634-.823-1.298-1.445-1.992-1.869-.695-.423-1.602-.634-2.724-.634-.999 0-1.913.182-2.741.546a7.887 7.887 0 0 0-2.303 1.569 5.797 5.797 0 0 0-.951 1.199 9.319 9.319 0 0 0-.749 1.639 23.033 23.033 0 0 0-.676 2.326c-.22.905-.451 1.992-.695 3.261-.149.715-.29 1.432-.42 2.151-.098.539-.189 1.08-.274 1.621-.073.47-.122.875-.147 1.216-.023.311-.035.623-.036.935 0 .704.128 1.345.384 1.921a4.325 4.325 0 0 0 1.041 1.463c.439.399.957.705 1.554.916a5.694 5.694 0 0 0 1.919.318c1.219 0 2.26-.224 3.126-.67.865-.447 1.712-1.058 2.54-1.833l1.535 1.868c-1.072.964-2.187 1.68-3.344 2.15-1.158.471-2.492.705-4.003.705a8.77 8.77 0 0 1-2.87-.458 7.272 7.272 0 0 1-2.357-1.322 6.118 6.118 0 0 1-1.609-2.115c-.39-.834-.585-1.792-.585-2.873 0-.235.013-.511.037-.828.025-.318.073-.705.146-1.164.214-1.336.445-2.67.695-4.001.292-1.48.554-2.738.786-3.772.231-1.034.487-1.927.767-2.679a9.637 9.637 0 0 1 .969-1.956 9.644 9.644 0 0 1 1.352-1.604c.853-.823 1.889-1.487 3.108-1.992a9.926 9.926 0 0 1 3.838-.758c1.608 0 2.924.282 3.948.846a8.917 8.917 0 0 1 2.668 2.256Zm27.818-2.89-5.227 25.099h-2.668l4.021-19.107-9.797 14.595h-2.266l-3.802-14.806-4.021 19.318h-2.669l5.228-25.099h2.558l4.351 17.449 11.697-17.449h2.595Zm20.288 2.678-1.901 1.551a8.899 8.899 0 0 0-.968-.934 5.58 5.58 0 0 0-1.115-.705 5.96 5.96 0 0 0-1.389-.458 8.71 8.71 0 0 0-1.755-.159c-.999 0-1.901.159-2.705.476-.804.317-1.48.741-2.029 1.269a5.529 5.529 0 0 0-1.26 1.816 5.215 5.215 0 0 0-.439 2.08c0 .987.347 1.745 1.042 2.273.694.529 1.589.923 2.686 1.181l2.449.529c1.975.447 3.406 1.134 4.296 2.062.889.929 1.334 2.274 1.334 4.037 0 1.245-.262 2.338-.786 3.278a7.332 7.332 0 0 1-2.12 2.38c-.89.646-1.925 1.134-3.107 1.463a14.055 14.055 0 0 1-3.784.493c-1.828 0-3.363-.27-4.606-.811-1.243-.54-2.388-1.422-3.436-2.644l2.011-1.692c.779.964 1.663 1.687 2.65 2.168.987.482 2.199.723 3.637.723.95 0 1.84-.129 2.668-.388a7.272 7.272 0 0 0 2.175-1.075 5.266 5.266 0 0 0 1.481-1.657 4.261 4.261 0 0 0 .548-2.133c0-.658-.097-1.204-.292-1.639a3.205 3.205 0 0 0-.786-1.093 3.86 3.86 0 0 0-1.17-.705c-.47-.182-.952-.329-1.444-.44l-2.449-.564c-.66-.15-1.308-.35-1.937-.6a6.764 6.764 0 0 1-1.81-1.057 5.483 5.483 0 0 1-1.352-1.639c-.354-.647-.53-1.428-.53-2.345 0-.869.176-1.774.53-2.714a7.508 7.508 0 0 1 1.645-2.573c.743-.776 1.705-1.411 2.887-1.904 1.183-.494 2.602-.74 4.259-.74 1.34 0 2.589.217 3.747.652 1.157.435 2.199 1.181 3.125 2.238Z" clip-rule="evenodd"/></svg>