<svg xmlns="http://www.w3.org/2000/svg" width="30" height="30" fill="none" viewBox="0 0 30 30"><g clip-path="url(#a)"><path fill="#000" d="M15 0c8.284 0 15 6.716 15 15 0 8.284-6.716 15-15 15-8.284 0-15-6.716-15-15C0 6.716 6.716 0 15 0ZM7.045 7.875l6.049 7.657-5.733 6.343h2.454l4.425-4.895 3.867 4.895h4.938l-6.306-8.07 5.36-5.93h-2.454l-4.041 4.474-3.497-4.474H7.045Zm4.324 1.347 8.776 11.231h-1.36L9.91 9.222h1.46Z"/></g><defs><clipPath id="a"><path fill="#fff" d="M0 0h30v30H0z"/></clipPath></defs></svg>